<svg xmlns="http://www.w3.org/2000/svg" width="18" height="18" fill="none" xmlns:v="https://vecta.io/nano"><path d="M15.806 10.631L7.369 2.194C5.963.731 3.656.731 2.194 2.137a3.6 3.6 0 0 0 0 5.175l.056.056L3.825 9l.787-.788-1.631-1.631a2.55 2.55 0 0 1 0-3.544c.956-.956 2.588-1.013 3.544-.056l.056.056 8.381 8.381a2.5 2.5 0 0 1 .056 3.544 2.5 2.5 0 0 1-3.544.056l-.056-.056L7.256 10.8a1.41 1.41 0 0 1 0-1.969c.27-.244.621-.38.984-.38s.715.135.984.38l2.306 2.306.787-.787-2.362-2.363a2.5 2.5 0 0 0-.83-.52c-.308-.117-.636-.172-.966-.161s-.654.086-.954.222-.57.331-.795.572c-.9.956-.9 2.475 0 3.488l4.219 4.219c1.406 1.462 3.713 1.462 5.175.056s1.462-3.769 0-5.231c0 .056 0 0 0 0z" fill="#f9f9f9"/></svg>