<svg xmlns="http://www.w3.org/2000/svg" width="20" height="20" fill="none" xmlns:v="https://vecta.io/nano"><g clip-path="url(#A)" stroke="#f9f9f9" stroke-width="2" stroke-linejoin="round"><path opacity=".8" d="M14.333 11.667c.231 0 .346 0 .44.051.077.042.149.122.183.203.042.098.031.203.01.412-.109 1.083-.482 2.127-1.09 3.038-.732 1.096-1.774 1.951-2.992 2.455s-2.559.637-3.852.379-2.481-.892-3.413-1.825-1.567-2.12-1.825-3.414-.125-2.634.379-3.852S3.533 6.856 4.63 6.124c.911-.609 1.955-.982 3.038-1.09.209-.021.313-.031.412.01.081.034.16.106.203.183.051.094.051.209.051.44V11c0 .233 0 .35.045.439.04.078.104.142.182.182.089.045.206.045.439.045h5.333z"/><path d="M11.667 2.333c0-.231 0-.346.051-.44.042-.077.122-.149.203-.183.098-.042.203-.031.412-.01 1.524.153 2.956.827 4.049 1.919s1.767 2.525 1.919 4.048c.021.209.032.313-.01.412-.034.081-.106.16-.183.203-.093.051-.209.051-.44.051h-5.333c-.233 0-.35 0-.439-.045-.078-.04-.142-.104-.182-.182-.045-.089-.045-.206-.045-.439V2.333z"/></g><defs><clipPath id="A"><path fill="#fff" d="M0 0h20v20H0z"/></clipPath></defs></svg>