<svg xmlns="http://www.w3.org/2000/svg" width="20" height="20" fill="none" xmlns:v="https://vecta.io/nano"><g clip-path="url(#A)" fill="#30b94d"><path d="M9.375 13.6L6 9.8l1.125-1.266 2.25 2.532L13.874 6 15 7.267l-5.625 6.331v.002z"/><path fill-rule="evenodd" d="M0 10C0 4.477 4.477 0 10 0s10 4.477 10 10-4.477 10-10 10S0 15.523 0 10zm10 8.182a8.18 8.18 0 0 1-5.785-2.396A8.18 8.18 0 0 1 1.818 10a8.18 8.18 0 0 1 2.396-5.785A8.18 8.18 0 0 1 10 1.818 8.18 8.18 0 0 1 18.182 10 8.18 8.18 0 0 1 10 18.182z"/></g><defs><clipPath id="A"><path fill="#fff" d="M0 0h20v20H0z"/></clipPath></defs></svg>