<svg xmlns="http://www.w3.org/2000/svg" width="20" height="20" fill="none" xmlns:v="https://vecta.io/nano"><g clip-path="url(#A)" stroke="#f9f9f9" stroke-width="1.3" stroke-linecap="round" stroke-linejoin="round"><path d="M14.95 14.95A8.39 8.39 0 0 1 10 16.667C4.167 16.667.833 10 .833 10A15.39 15.39 0 0 1 5.05 5.05m3.2-1.517a7.6 7.6 0 0 1 1.75-.2c5.833 0 9.167 6.667 9.167 6.667a15.42 15.42 0 0 1-1.8 2.658m-5.6-.892a2.5 2.5 0 0 1-3.597.063 2.5 2.5 0 0 1 .063-3.597M.833.833l18.333 18.333"/></g><defs><clipPath id="A"><path fill="#fff" d="M0 0h20v20H0z"/></clipPath></defs></svg>