<svg xmlns="http://www.w3.org/2000/svg" width="20" height="20" fill="none" stroke="#f9f9f9" stroke-width="2" stroke-linecap="round" stroke-linejoin="round" xmlns:v="https://vecta.io/nano"><path d="M10 10L6.439 7.033c-.529-.441-.794-.661-.984-.932a2.5 2.5 0 0 1-.37-.789C5 4.993 5 4.649 5 3.96V1.667M10 10l3.561-2.967c.529-.441.794-.661.984-.932a2.5 2.5 0 0 0 .37-.789C15 4.993 15 4.649 15 3.96V1.667M10 10l-3.561 2.967c-.529.441-.794.661-.984.931a2.5 2.5 0 0 0-.37.789C5 15.007 5 15.352 5 16.04v2.293M10 10l3.561 2.967c.529.441.794.661.984.931a2.5 2.5 0 0 1 .37.789c.086.319.086.663.086 1.352v2.293"/><path d="M3.333 1.667h13.333M3.333 18.333h13.333"/></svg>