<svg width="16" height="16" viewBox="0 0 16 16" fill="none" xmlns="http://www.w3.org/2000/svg">
<path d="M8 7.99998L5.15141 5.62615C4.72818 5.27346 4.51656 5.09711 4.36443 4.88094C4.22963 4.6894 4.12953 4.47567 4.06868 4.2495C4 3.99424 4 3.71877 4 3.16785V1.33331M8 7.99998L10.8486 5.62615C11.2718 5.27346 11.4834 5.09711 11.6356 4.88094C11.7704 4.6894 11.8705 4.47567 11.9313 4.2495C12 3.99424 12 3.71877 12 3.16785V1.33331M8 7.99998L5.15141 10.3738C4.72818 10.7265 4.51656 10.9028 4.36443 11.119C4.22963 11.3106 4.12953 11.5243 4.06868 11.7505C4 12.0057 4 12.2812 4 12.8321V14.6666M8 7.99998L10.8486 10.3738C11.2718 10.7265 11.4834 10.9028 11.6356 11.119C11.7704 11.3106 11.8705 11.5243 11.9313 11.7505C12 12.0057 12 12.2812 12 12.8321V14.6666" stroke="#F9F9F9" stroke-width="2" stroke-linecap="round" stroke-linejoin="round"/>
<path d="M2.66699 1.33331H13.3337M2.66699 14.6666H13.3337" stroke="#F9F9F9" stroke-width="2" stroke-linecap="round" stroke-linejoin="round"/>
</svg>
