<svg xmlns="http://www.w3.org/2000/svg" width="182" height="17" fill="#f9f9f9" xmlns:v="https://vecta.io/nano"><path d="M0 11V0h12.89c1.752 0 3.459.558 4.873 1.594.845.619 1.52 1.442 1.962 2.392l1.491 3.206a21.75 21.75 0 0 1 2.154-4.004l.074-.108a6.6 6.6 0 0 1 .839-1.001l.635-.621c.414-.405.905-.722 1.444-.932l.055-.021C27.273.171 28.182 0 29.1 0H42v11H0zm0 2h42v4H0zm56.764 1.5h-2.682l-2.538-4.374h-1.89V14.5H47.17V1.9h5.04a4.04 4.04 0 0 1 2.97 1.224 4.02 4.02 0 0 1 1.224 2.952c0 .78-.222 1.506-.666 2.178a4.19 4.19 0 0 1-1.764 1.494l2.79 4.752zM52.21 4.222h-2.556v3.726h2.556c.468 0 .87-.18 1.206-.54a1.92 1.92 0 0 0 .504-1.332c0-.516-.168-.954-.504-1.314s-.738-.54-1.206-.54zm8.861 5.076v2.826h5.31V14.5h-7.794V1.9h7.704v2.376h-5.22v2.682h4.77v2.34h-4.77zM79.485 14.5h-2.7l-.756-2.268h-5.022l-.756 2.268h-2.682l4.41-12.6h3.078l4.428 12.6zm-5.958-9.738L71.799 9.91h3.456l-1.728-5.148zM81.068 1.9h5.004c1.728 0 3.168.606 4.32 1.818 1.164 1.2 1.746 2.694 1.746 4.482s-.582 3.282-1.746 4.482C89.24 13.894 87.8 14.5 86.072 14.5h-5.004V1.9zm2.484 10.224h2.52c1.092 0 1.98-.36 2.664-1.08.684-.744 1.026-1.692 1.026-2.844 0-1.164-.342-2.106-1.026-2.826-.684-.732-1.572-1.098-2.664-1.098h-2.52v7.848zm19.15 2.628c-1.98 0-3.366-.798-4.158-2.394l2.142-1.224c.396.792 1.068 1.188 2.016 1.188.648 0 1.134-.15 1.458-.45.336-.312.504-.744.504-1.296V1.9h2.466v8.676c0 1.32-.414 2.346-1.242 3.078-.816.732-1.878 1.098-3.186 1.098zm17.628-1.89c-1.272 1.26-2.82 1.89-4.644 1.89s-3.372-.63-4.644-1.89c-1.26-1.284-1.89-2.838-1.89-4.662 0-1.836.63-3.384 1.89-4.644 1.272-1.272 2.82-1.908 4.644-1.908s3.372.636 4.644 1.908c1.272 1.26 1.908 2.808 1.908 4.644s-.636 3.39-1.908 4.662zm-7.542-1.692c.768.768 1.734 1.152 2.898 1.152s2.13-.384 2.898-1.152c.78-.78 1.17-1.77 1.17-2.97s-.39-2.19-1.17-2.97-1.746-1.17-2.898-1.17-2.118.39-2.898 1.17-1.17 1.77-1.17 2.97.39 2.19 1.17 2.97zm16.166 3.582c-1.404 0-2.556-.396-3.456-1.188s-1.35-1.854-1.35-3.186V1.9h2.466v8.28c0 .672.192 1.2.576 1.584.396.372.984.558 1.764.558s1.362-.186 1.746-.558c.396-.384.594-.912.594-1.584V1.9h2.484v8.478c0 1.332-.45 2.394-1.35 3.186s-2.058 1.188-3.474 1.188zm17.016-.252h-2.682l-2.538-4.374h-1.89V14.5h-2.484V1.9h5.04a4.04 4.04 0 0 1 2.97 1.224 4.02 4.02 0 0 1 1.224 2.952c0 .78-.222 1.506-.666 2.178a4.19 4.19 0 0 1-1.764 1.494l2.79 4.752zm-4.554-10.278h-2.556v3.726h2.556c.468 0 .87-.18 1.206-.54a1.92 1.92 0 0 0 .504-1.332c0-.516-.168-.954-.504-1.314s-.738-.54-1.206-.54zm13.667 5.364V1.9h2.484v12.6h-1.89l-5.4-7.704V14.5h-2.484V1.9h1.89l5.4 7.686zm7.665-.288v2.826h5.31V14.5h-7.794V1.9h7.704v2.376h-5.22v2.682h4.77v2.34h-4.77zM177.333 1.9h2.808l-4.32 7.686V14.5h-2.466V9.586L169.053 1.9h2.808l2.736 5.256 2.736-5.256z"/></svg>