<svg aria-hidden="true" style="position: absolute; width: 0; height: 0; overflow: hidden;" version="1.1" xmlns="http://www.w3.org/2000/svg" xmlns:xlink="http://www.w3.org/1999/xlink">
<defs>
<symbol id="i-arrow-down" viewBox="0 0 20 20">
<path fill="none" stroke="#f9f9f9" style="stroke: var(--color1, #f9f9f9)" stroke-linejoin="round" stroke-linecap="round" stroke-miterlimit="4" stroke-width="1.875" d="M15 12.5l-5-5-5 5"></path>
</symbol>
<symbol id="i-arrow-right" viewBox="0 0 20 20">
<path fill="none" stroke="#e3e3e3" style="stroke: var(--color2, #e3e3e3)" stroke-linejoin="round" stroke-linecap="round" stroke-miterlimit="4" stroke-width="1.6667" d="M11.667 14.167l4.167-4.167-4.167-4.167M15.833 10h-11.667"></path>
</symbol>
<symbol id="i-attachment" viewBox="0 0 20 20">
<path fill="#f9f9f9" style="fill: var(--color1, #f9f9f9)" d="M17.562 11.812l-9.374-9.374c-1.562-1.626-4.126-1.626-5.75-0.063-0.752 0.728-1.219 1.747-1.219 2.875s0.467 2.147 1.218 2.874l0.001 0.001 0.062 0.062 1.75 1.813 0.874-0.876-1.812-1.812c-0.492-0.509-0.796-1.204-0.796-1.969s0.303-1.46 0.797-1.97l-0.001 0.001c1.062-1.062 2.876-1.126 3.938-0.062l9.374 9.374c0.524 0.506 0.85 1.215 0.85 2 0 0.754-0.3 1.438-0.788 1.939l0.001-0.001c-0.506 0.524-1.215 0.85-2 0.85-0.754 0-1.438-0.3-1.939-0.788l-4.686-4.686c-0.275-0.282-0.445-0.668-0.445-1.094s0.17-0.812 0.445-1.094l-0 0c0.3-0.271 0.69-0.422 1.093-0.422s0.794 0.15 1.093 0.422l2.562 2.562 0.874-0.874-2.624-2.626c-0.258-0.244-0.565-0.44-0.903-0.571l-0.019-0.006c-0.342-0.13-0.707-0.191-1.073-0.179s-0.727 0.096-1.060 0.247-0.633 0.368-0.883 0.636c-1 1.062-1 2.75 0 3.876l4.688 4.688c1.562 1.624 4.126 1.624 5.75 0.062s1.624-4.188 0-5.812c0 0.062 0 0 0 0z"></path>
</symbol>
<symbol id="i-block-run" viewBox="0 0 20 20">
<path fill="none" stroke="#f9f9f9" style="stroke: var(--color1, #f9f9f9)" stroke-linejoin="miter" stroke-linecap="butt" stroke-miterlimit="4" stroke-width="0.8" d="M19.6 10c0 5.302-4.298 9.6-9.6 9.6s-9.6-4.298-9.6-9.6c0-5.302 4.298-9.6 9.6-9.6s9.6 4.298 9.6 9.6z"></path>
<path fill="#e90516" style="fill: var(--color3, #e90516)" d="M7.2 6h5.6c0.663 0 1.2 0.537 1.2 1.2v5.6c0 0.663-0.537 1.2-1.2 1.2h-5.6c-0.663 0-1.2-0.537-1.2-1.2v-5.6c0-0.663 0.537-1.2 1.2-1.2z"></path>
</symbol>
<symbol id="i-block-stop" viewBox="0 0 20 20">
<path fill="#e90516" style="fill: var(--color3, #e90516)" d="M18 10c0 4.418-3.582 8-8 8s-8-3.582-8-8c0-4.418 3.582-8 8-8s8 3.582 8 8z"></path>
<path fill="none" stroke="#f9f9f9" style="stroke: var(--color1, #f9f9f9)" stroke-linejoin="miter" stroke-linecap="butt" stroke-miterlimit="4" stroke-width="0.8" d="M19.6 10c0 5.302-4.298 9.6-9.6 9.6s-9.6-4.298-9.6-9.6c0-5.302 4.298-9.6 9.6-9.6s9.6 4.298 9.6 9.6z"></path>
</symbol>
<symbol id="i-book-opened" viewBox="0 0 31 20">
<path fill="#000" style="fill: var(--color4, #000)" d="M0 0h30.833v20h-30.833v-20z"></path>
<path fill="#f9f9f9" style="fill: var(--color1, #f9f9f9)" opacity="0.3" d="M0 0h30.833v20h-30.833v-20z"></path>
</symbol>
<symbol id="i-books" viewBox="0 0 20 20">
<path fill="#f9f9f9" style="fill: var(--color1, #f9f9f9)" opacity="0.3" d="M0 0h30.833v20h-30.833v-20z"></path>
</symbol>
<symbol id="i-chart" viewBox="0 0 20 20">
<path fill="none" opacity="0.8" stroke="#f9f9f9" style="stroke: var(--color1, #f9f9f9)" stroke-linejoin="round" stroke-linecap="butt" stroke-miterlimit="4" stroke-width="2" d="M14.333 11.667c0.231 0 0.346 0 0.44 0.051 0.077 0.042 0.149 0.122 0.183 0.203 0.042 0.098 0.031 0.203 0.010 0.412-0.109 1.083-0.482 2.127-1.090 3.038-0.732 1.096-1.774 1.951-2.992 2.455s-2.559 0.637-3.852 0.379-2.481-0.892-3.413-1.825-1.567-2.12-1.825-3.414-0.125-2.634 0.379-3.852 1.36-2.258 2.457-2.99c0.911-0.609 1.955-0.982 3.038-1.090 0.209-0.021 0.313-0.031 0.412 0.010 0.081 0.034 0.16 0.106 0.203 0.183 0.051 0.094 0.051 0.209 0.051 0.44v5.333c0 0.233 0 0.35 0.045 0.439 0.040 0.078 0.104 0.142 0.182 0.182 0.089 0.045 0.206 0.045 0.439 0.045h5.333z"></path>
<path fill="none" stroke="#f9f9f9" style="stroke: var(--color1, #f9f9f9)" stroke-linejoin="round" stroke-linecap="butt" stroke-miterlimit="4" stroke-width="2" d="M11.667 2.333c0-0.231 0-0.346 0.051-0.44 0.042-0.077 0.122-0.149 0.203-0.183 0.098-0.042 0.203-0.031 0.412-0.010 1.524 0.153 2.956 0.827 4.049 1.919s1.767 2.525 1.919 4.048c0.021 0.209 0.032 0.313-0.010 0.412-0.034 0.081-0.106 0.16-0.183 0.203-0.093 0.051-0.209 0.051-0.44 0.051h-5.333c-0.233 0-0.35 0-0.439-0.045-0.078-0.040-0.142-0.104-0.182-0.182-0.045-0.089-0.045-0.206-0.045-0.439v-5.334z"></path>
</symbol>
<symbol id="i-check" viewBox="0 0 20 20">
<path fill="#30b94d" style="fill: var(--color5, #30b94d)" d="M9.375 13.6l-3.375-3.8 1.125-1.266 2.25 2.532 4.499-5.066 1.126 1.267-5.625 6.333z"></path>
<path fill="#30b94d" style="fill: var(--color5, #30b94d)" d="M0 10c0 5.523 4.477 10 10 10s10-4.477 10-10c0-5.523-4.477-10-10-10s-10 4.477-10 10zM10 18.182c-0 0-0 0-0.001 0-2.259 0-4.304-0.916-5.784-2.396v0c-1.481-1.48-2.397-3.526-2.397-5.785 0-0 0-0.001 0-0.001v0c0-0 0-0 0-0.001 0-2.259 0.916-4.304 2.396-5.784v0c1.48-1.481 3.526-2.397 5.785-2.397 0 0 0.001 0 0.001 0h-0c0.001 0 0.001 0 0.002 0 4.518 0 8.18 3.662 8.18 8.18 0 0.001 0 0.001 0 0.002v-0c0 0.001 0 0.001 0 0.002 0 4.518-3.662 8.18-8.18 8.18-0.001 0-0.001 0-0.002 0h0z"></path>
</symbol>
<symbol id="i-error" viewBox="0 0 20 20">
<path fill="#e90516" style="fill: var(--color3, #e90516)" d="M10 18.125c-2.155 0-4.221-0.857-5.745-2.38s-2.38-3.59-2.38-5.745c0-2.155 0.857-4.221 2.38-5.745s3.59-2.38 5.745-2.38c2.155 0 4.221 0.857 5.745 2.38s2.38 3.59 2.38 5.745c0 2.155-0.857 4.221-2.38 5.745s-3.59 2.38-5.745 2.38zM10 20c5.523 0 10-4.477 10-10v0c0-5.523-4.477-10-10-10v0c-5.523 0-10 4.477-10 10v0c0 5.523 4.477 10 10 10v0zM11.25 13.75c0 0.69-0.56 1.25-1.25 1.25v0c-0.69 0-1.25-0.56-1.25-1.25v0c0-0.69 0.56-1.25 1.25-1.25v0c0.69 0 1.25 0.56 1.25 1.25v0zM10.938 5.938c-0.001-0.518-0.42-0.937-0.938-0.938h-0c-0.249 0-0.487 0.099-0.663 0.275s-0.275 0.414-0.275 0.663v4.375c0.001 0.518 0.42 0.937 0.938 0.938h0c0.517-0.001 0.936-0.42 0.938-0.937v-4.376z"></path>
</symbol>
<symbol id="i-eye" viewBox="0 0 20 20">
<path fill="none" stroke="#f9f9f9" style="stroke: var(--color1, #f9f9f9)" stroke-linejoin="round" stroke-linecap="butt" stroke-miterlimit="4" stroke-width="1.3" d="M0.833 10s3.334-6.667 9.167-6.667 9.167 6.667 9.167 6.667-3.334 6.667-9.167 6.667-9.167-6.667-9.167-6.667z"></path>
<path fill="none" stroke="#f9f9f9" style="stroke: var(--color1, #f9f9f9)" stroke-linejoin="round" stroke-linecap="butt" stroke-miterlimit="4" stroke-width="1.3" d="M10 12.5c1.381 0 2.5-1.119 2.5-2.5s-1.119-2.5-2.5-2.5v0c-1.381 0-2.5 1.119-2.5 2.5s1.119 2.5 2.5 2.5v0z"></path>
</symbol>
<symbol id="i-eye-off" viewBox="0 0 20 20">
<path fill="none" stroke="#f9f9f9" style="stroke: var(--color1, #f9f9f9)" stroke-linejoin="round" stroke-linecap="round" stroke-miterlimit="4" stroke-width="1.3" d="M14.95 14.95c-1.359 1.045-3.077 1.685-4.943 1.717l-0.007 0c-5.833 0-9.167-6.667-9.167-6.667 1.071-1.97 2.486-3.619 4.181-4.923l0.036-0.027M8.25 3.533c0.52-0.127 1.118-0.2 1.732-0.2 0.006 0 0.013 0 0.019 0h-0.001c5.833 0 9.167 6.667 9.167 6.667-0.545 1.009-1.142 1.88-1.819 2.681l0.019-0.023M11.767 11.766c-0.458 0.49-1.108 0.796-1.829 0.796-0.691 0-1.316-0.28-1.768-0.733v0c-0.453-0.452-0.733-1.078-0.733-1.768 0-0.721 0.305-1.371 0.794-1.828l0.001-0.001M0.833 0.833l18.333 18.333"></path>
</symbol>
<symbol id="i-hourglass" viewBox="0 0 20 20">
<path fill="none" stroke="#f9f9f9" style="stroke: var(--color1, #f9f9f9)" stroke-linejoin="round" stroke-linecap="round" stroke-miterlimit="4" stroke-width="2" d="M10 10l-3.561-2.967c-0.529-0.441-0.794-0.661-0.984-0.932-0.161-0.226-0.288-0.488-0.366-0.771l-0.004-0.018c-0.085-0.319-0.085-0.663-0.085-1.352v-2.293M10 10l3.561-2.967c0.529-0.441 0.794-0.661 0.984-0.932 0.161-0.226 0.288-0.488 0.366-0.771l0.004-0.018c0.085-0.319 0.085-0.663 0.085-1.352v-2.293M10 10l-3.561 2.967c-0.529 0.441-0.794 0.661-0.984 0.931-0.161 0.226-0.288 0.488-0.366 0.771l-0.004 0.018c-0.085 0.32-0.085 0.665-0.085 1.353v2.293M10 10l3.561 2.967c0.529 0.441 0.794 0.661 0.984 0.931 0.161 0.226 0.288 0.488 0.366 0.771l0.004 0.018c0.086 0.319 0.086 0.663 0.086 1.352v2.293"></path>
<path fill="none" stroke="#f9f9f9" style="stroke: var(--color1, #f9f9f9)" stroke-linejoin="round" stroke-linecap="round" stroke-miterlimit="4" stroke-width="2" d="M3.333 1.667h13.333M3.333 18.333h13.333"></path>
</symbol>
<symbol id="i-like" viewBox="0 0 20 20">
<path fill="none" stroke="#f9f9f9" style="stroke: var(--color1, #f9f9f9)" stroke-linejoin="round" stroke-linecap="round" stroke-miterlimit="4" stroke-width="2" d="M3.333 1.667h13.333M3.333 18.333h13.333"></path>
</symbol>
<symbol id="i-logo-mobile" viewBox="0 0 49 20">
<path fill="#f9f9f9" style="fill: var(--color1, #f9f9f9)" d="M0 12.941v-12.941h15.165c2.061 0 4.069 0.656 5.733 1.875 0.994 0.728 1.788 1.696 2.308 2.814l1.754 3.772c0.747-1.805 1.597-3.354 2.59-4.797l-0.056 0.086 0.087-0.127c0.302-0.44 0.627-0.826 0.986-1.176l0.001-0.001 0.747-0.731c0.487-0.476 1.065-0.849 1.699-1.096l0.065-0.025c1.007-0.393 2.076-0.594 3.156-0.594h15.176v12.941h-49.412zM0 15.294h49.412v4.706h-49.412z"></path>
</symbol>
<symbol id="i-logo-tablet" viewBox="0 0 214 20">
<path fill="#f9f9f9" style="fill: var(--color1, #f9f9f9)" d="M0 12.941v-12.941h15.165c2.061 0 4.069 0.656 5.733 1.875 0.994 0.728 1.788 1.696 2.308 2.814l1.754 3.772c0.747-1.805 1.597-3.354 2.59-4.797l-0.056 0.086 0.087-0.127c0.302-0.44 0.627-0.826 0.986-1.176l0.001-0.001 0.747-0.731c0.487-0.476 1.065-0.849 1.699-1.096l0.065-0.025c1.007-0.393 2.076-0.594 3.156-0.594h15.176v12.941h-49.412zM0 15.294h49.412v4.706h-49.412zM66.781 17.059h-3.155l-2.986-5.146h-2.224v5.146h-2.922v-14.824h5.929c0.025-0 0.055-0.001 0.085-0.001 1.337 0 2.544 0.552 3.408 1.44l0.001 0.001c0.889 0.861 1.441 2.065 1.441 3.399 0 0.026-0 0.052-0.001 0.078l0-0.004c0 0.918-0.261 1.772-0.784 2.562-0.515 0.764-1.218 1.366-2.045 1.745l-0.031 0.013 3.282 5.591zM61.424 4.967h-3.007v4.384h3.007c0.551 0 1.024-0.212 1.419-0.635 0.368-0.4 0.593-0.937 0.593-1.526 0-0.014-0-0.029-0-0.043l0 0.002c0-0.607-0.198-1.122-0.593-1.546s-0.868-0.635-1.419-0.635zM71.848 10.939v3.325h6.247v2.795h-9.169v-14.824h9.064v2.795h-6.141v3.155h5.612v2.753h-5.612zM93.512 17.059h-3.176l-0.889-2.668h-5.908l-0.889 2.668h-3.155l5.188-14.824h3.621l5.209 14.824zM86.502 5.602l-2.033 6.056h4.066l-2.033-6.056zM95.374 2.235h5.887c2.033 0 3.727 0.713 5.082 2.139 1.369 1.412 2.054 3.169 2.054 5.273s-0.685 3.861-2.054 5.273c-1.355 1.426-3.049 2.139-5.082 2.139h-5.887v-14.824zM98.296 14.264h2.965c1.285 0 2.329-0.424 3.134-1.271 0.805-0.875 1.207-1.991 1.207-3.346 0-1.369-0.402-2.478-1.207-3.325-0.805-0.861-1.849-1.292-3.134-1.292h-2.965v9.233zM120.826 17.355c-2.329 0-3.96-0.939-4.892-2.816l2.52-1.44c0.466 0.932 1.256 1.398 2.372 1.398 0.762 0 1.334-0.176 1.715-0.529 0.395-0.367 0.593-0.875 0.593-1.525v-10.207h2.901v10.207c0 1.553-0.487 2.76-1.461 3.621-0.96 0.861-2.209 1.292-3.748 1.292zM141.565 15.132c-1.496 1.482-3.318 2.224-5.464 2.224s-3.967-0.741-5.464-2.224c-1.482-1.511-2.224-3.339-2.224-5.485 0-2.16 0.741-3.981 2.224-5.464 1.496-1.496 3.318-2.245 5.464-2.245s3.967 0.748 5.464 2.245c1.496 1.482 2.245 3.304 2.245 5.464s-0.748 3.988-2.245 5.485zM132.692 13.141c0.904 0.904 2.040 1.355 3.409 1.355s2.506-0.452 3.409-1.355c0.918-0.918 1.376-2.082 1.376-3.494s-0.459-2.576-1.376-3.494-2.054-1.376-3.409-1.376-2.492 0.459-3.409 1.376-1.376 2.082-1.376 3.494 0.459 2.576 1.376 3.494zM151.711 17.355c-1.652 0-3.007-0.466-4.066-1.398s-1.588-2.181-1.588-3.748v-9.974h2.901v9.741c0 0.791 0.226 1.412 0.678 1.864 0.466 0.438 1.158 0.656 2.075 0.656s1.602-0.219 2.054-0.656c0.466-0.452 0.699-1.073 0.699-1.864v-9.741h2.922v9.974c0 1.567-0.529 2.816-1.588 3.748s-2.421 1.398-4.087 1.398zM171.729 17.059h-3.155l-2.986-5.146h-2.224v5.146h-2.922v-14.824h5.929c0.025-0 0.055-0.001 0.085-0.001 1.337 0 2.544 0.552 3.408 1.44l0.001 0.001c0.889 0.861 1.441 2.065 1.441 3.399 0 0.026-0 0.052-0.001 0.078l0-0.004c0 0.918-0.261 1.772-0.784 2.562-0.515 0.764-1.218 1.366-2.045 1.745l-0.031 0.013 3.282 5.591zM166.372 4.967h-3.007v4.384h3.007c0.551 0 1.024-0.212 1.419-0.635 0.368-0.4 0.593-0.937 0.593-1.526 0-0.014-0-0.029-0-0.043l0 0.002c0-0.607-0.198-1.122-0.593-1.546s-0.868-0.635-1.419-0.635zM182.451 11.278v-9.042h2.922v14.824h-2.224l-6.353-9.064v9.064h-2.922v-14.824h2.224l6.353 9.042zM191.468 10.939v3.325h6.247v2.795h-9.169v-14.824h9.064v2.795h-6.141v3.155h5.612v2.753h-5.612zM208.627 2.235h3.304l-5.082 9.042v5.781h-2.901v-5.781l-5.061-9.042h3.304l3.219 6.184 3.219-6.184z"></path>
</symbol>
<symbol id="i-star" viewBox="0 0 20 20">
<path fill="#f9f9f9" style="fill: var(--color1, #f9f9f9)" d="M0 12.941v-12.941h15.165c2.061 0 4.069 0.656 5.733 1.875 0.994 0.728 1.788 1.696 2.308 2.814l1.754 3.772c0.747-1.805 1.597-3.354 2.59-4.797l-0.056 0.086 0.087-0.127c0.302-0.44 0.627-0.826 0.986-1.176l0.001-0.001 0.747-0.731c0.487-0.476 1.065-0.849 1.699-1.096l0.065-0.025c1.007-0.393 2.076-0.594 3.156-0.594h15.176v12.941h-49.412zM0 15.294h49.412v4.706h-49.412zM66.781 17.059h-3.155l-2.986-5.146h-2.224v5.146h-2.922v-14.824h5.929c0.025-0 0.055-0.001 0.085-0.001 1.337 0 2.544 0.552 3.408 1.44l0.001 0.001c0.889 0.861 1.441 2.065 1.441 3.399 0 0.026-0 0.052-0.001 0.078l0-0.004c0 0.918-0.261 1.772-0.784 2.562-0.515 0.764-1.218 1.366-2.045 1.745l-0.031 0.013 3.282 5.591zM61.424 4.967h-3.007v4.384h3.007c0.551 0 1.024-0.212 1.419-0.635 0.368-0.4 0.593-0.937 0.593-1.526 0-0.014-0-0.029-0-0.043l0 0.002c0-0.607-0.198-1.122-0.593-1.546s-0.868-0.635-1.419-0.635zM71.848 10.939v3.325h6.247v2.795h-9.169v-14.824h9.064v2.795h-6.141v3.155h5.612v2.753h-5.612zM93.512 17.059h-3.176l-0.889-2.668h-5.908l-0.889 2.668h-3.155l5.188-14.824h3.621l5.209 14.824zM86.502 5.602l-2.033 6.056h4.066l-2.033-6.056zM95.374 2.235h5.887c2.033 0 3.727 0.713 5.082 2.139 1.369 1.412 2.054 3.169 2.054 5.273s-0.685 3.861-2.054 5.273c-1.355 1.426-3.049 2.139-5.082 2.139h-5.887v-14.824zM98.296 14.264h2.965c1.285 0 2.329-0.424 3.134-1.271 0.805-0.875 1.207-1.991 1.207-3.346 0-1.369-0.402-2.478-1.207-3.325-0.805-0.861-1.849-1.292-3.134-1.292h-2.965v9.233zM120.826 17.355c-2.329 0-3.96-0.939-4.892-2.816l2.52-1.44c0.466 0.932 1.256 1.398 2.372 1.398 0.762 0 1.334-0.176 1.715-0.529 0.395-0.367 0.593-0.875 0.593-1.525v-10.207h2.901v10.207c0 1.553-0.487 2.76-1.461 3.621-0.96 0.861-2.209 1.292-3.748 1.292zM141.565 15.132c-1.496 1.482-3.318 2.224-5.464 2.224s-3.967-0.741-5.464-2.224c-1.482-1.511-2.224-3.339-2.224-5.485 0-2.16 0.741-3.981 2.224-5.464 1.496-1.496 3.318-2.245 5.464-2.245s3.967 0.748 5.464 2.245c1.496 1.482 2.245 3.304 2.245 5.464s-0.748 3.988-2.245 5.485zM132.692 13.141c0.904 0.904 2.040 1.355 3.409 1.355s2.506-0.452 3.409-1.355c0.918-0.918 1.376-2.082 1.376-3.494s-0.459-2.576-1.376-3.494-2.054-1.376-3.409-1.376-2.492 0.459-3.409 1.376-1.376 2.082-1.376 3.494 0.459 2.576 1.376 3.494zM151.711 17.355c-1.652 0-3.007-0.466-4.066-1.398s-1.588-2.181-1.588-3.748v-9.974h2.901v9.741c0 0.791 0.226 1.412 0.678 1.864 0.466 0.438 1.158 0.656 2.075 0.656s1.602-0.219 2.054-0.656c0.466-0.452 0.699-1.073 0.699-1.864v-9.741h2.922v9.974c0 1.567-0.529 2.816-1.588 3.748s-2.421 1.398-4.087 1.398zM171.729 17.059h-3.155l-2.986-5.146h-2.224v5.146h-2.922v-14.824h5.929c0.025-0 0.055-0.001 0.085-0.001 1.337 0 2.544 0.552 3.408 1.44l0.001 0.001c0.889 0.861 1.441 2.065 1.441 3.399 0 0.026-0 0.052-0.001 0.078l0-0.004c0 0.918-0.261 1.772-0.784 2.562-0.515 0.764-1.218 1.366-2.045 1.745l-0.031 0.013 3.282 5.591zM166.372 4.967h-3.007v4.384h3.007c0.551 0 1.024-0.212 1.419-0.635 0.368-0.4 0.593-0.937 0.593-1.526 0-0.014-0-0.029-0-0.043l0 0.002c0-0.607-0.198-1.122-0.593-1.546s-0.868-0.635-1.419-0.635zM182.451 11.278v-9.042h2.922v14.824h-2.224l-6.353-9.064v9.064h-2.922v-14.824h2.224l6.353 9.042zM191.468 10.939v3.325h6.247v2.795h-9.169v-14.824h9.064v2.795h-6.141v3.155h5.612v2.753h-5.612zM208.627 2.235h3.304l-5.082 9.042v5.781h-2.901v-5.781l-5.061-9.042h3.304l3.219 6.184 3.219-6.184z"></path>
</symbol>
</defs>
</svg>
